<?xml version="1.0" encoding="utf-8"?>
<!-- Generator: Adobe Illustrator 19.0.0, SVG Export Plug-In . SVG Version: 6.00 Build 0)  -->
<svg version="1.1" id="Upload_by_NICF-Nettie" xmlns="http://www.w3.org/2000/svg" xmlns:xlink="http://www.w3.org/1999/xlink"
	 x="0px" y="0px" viewBox="0 0 1000 280.486" enable-background="new 0 0 1000 280.486" xml:space="preserve">
<g id="Cinerama">
	<path fill="#FFFFFF" d="M489,218.211l105,22.942V66.718l-105-30.59V218.211z M504,74.484l21.825,4.596
		c14.416,3.064,24.275,5.695,29.379,7.891c5.104,2.2,9.312,5.924,12.531,11.177c3.217,5.256,4.848,12.888,4.848,22.9
		c0,9.141-1.123,15.043-3.393,17.702c-2.279,2.663-6.745,3.598-13.42,2.808c6.047,2.782,10.114,5.654,12.192,8.611
		c2.083,2.958,3.573,5.54,4.081,7.755c0.508,2.21,0.957,8.057,0.957,17.53v30.983l-29-6.026V161.38
		c0-6.291-0.356-10.29-1.346-12.001c-0.994-1.707-3.654-3.009-7.654-3.905v52.961l-31-6.491V74.484z M664.109,103.665
		c-3.111,23.262-5.065,40.188-5.86,50.787l10.511-2.599C667.216,138.929,665.666,122.867,664.109,103.665z M24.178,201.832
		L144,233.506V66.718L22.374,32.851L24.178,201.832z M42,110.835c0-8.462,0.382-14.75,0.963-18.86
		c0.58-4.108,2.355-7.816,5.233-11.121c2.876-3.307,6.89-5.541,11.994-6.707c5.102-1.163,10.977-1.041,17.605,0.367
		c8.996,1.912,16.425,5.23,22.278,9.952c5.851,4.72,9.514,9.873,11.353,15.457c1.837,5.582,2.575,13.855,2.575,24.818v11.157
		l-30-6.491v-20.414c0-5.937-0.413-9.711-1.066-11.322c-0.653-1.611-2.137-2.652-4.36-3.126c-2.516-0.533-3.997,0.024-4.674,1.667
		C73.222,97.859,73,101.655,73,107.604v54.561c0,5.706,0.201,9.5,0.879,11.386c0.677,1.886,2.132,3.081,4.503,3.585
		c2.272,0.482,3.812-0.077,4.514-1.673c0.7-1.597,1.104-5.621,1.104-12.069v-14.766l30,6.495v4.579
		c0,12.158-0.675,20.595-2.39,25.315c-1.718,4.724-5.421,8.373-11.298,10.946c-5.876,2.577-13.074,2.953-21.682,1.122
		c-8.949-1.904-16.3-5.087-22.104-9.564c-5.804-4.468-9.73-9.776-11.616-15.91C43.024,165.481,42,156.66,42,145.146V110.835z
		 M157,233.506l74-15.657V49.968l-74,18.935V233.506z M177,84.979l31-6.491v117.454l-31,6.495V84.979z M542.074,127.31
		c1.379-0.648,1.926-3.561,1.926-8.738v-6.457c0-3.724-0.523-6.307-1.854-7.752c-1.331-1.443-4.146-2.539-7.146-3.291v26.118
		C538,127.92,540.695,127.961,542.074,127.31z M730,211.656l122,40.422V78.008L730,29.574V211.656z M744,68.206l39.534,15.764
		c1.174,7.53,2.39,16.334,3.636,26.415l4.34,31.608l6.883-52.048L838,105.795v117.463l-26.563-10.654l0.033-79.312l-10.593,75.055
		l-18.923-7.549l-11.199-81.955l-0.045,77.466L744,185.664V68.206z M915.768,166.986l10.516-3.184
		c-1.546-12.838-3.099-28.808-4.652-47.925C918.521,139.309,916.566,156.349,915.768,166.986z M865,78.008v168.607l113-33.138
		V39.406L865,78.008z M928.725,204.997l-1.639-20.623l-10.925,3.308l-1.835,21.676l-31.58,9.561l15.577-122.172l44.153-13.374
		l17.463,112.169L928.725,204.997z M380,230.596l95-16.387V41.956l-95,18.208V230.596z M403,83.087l51-7.157v23.506l-20,2.863
		v22.273l19-2.68v22.349l-19,2.68v25.827l22-3.15v23.506l-53,7.442V83.087z M604,238.968l111-31.316V32.851l-111,30.59V238.968z
		 M640.804,83.244l44.143-10.926l17.467,113.14l-31.217,7.726l-1.639-20.713l-10.925,2.703l-1.835,21.573l-31.575,7.811
		L640.804,83.244z M245,46.326v175.53l120.672,12.743L364.33,55.793L245,46.326z M338,204.051l-26.941-2.817L295,146.17v53.396
		l-26-2.684V79.423l25.708,2.684L312,136.797V83.908l26,2.684V204.051z"/>
</g>
</svg>
